<svg width="832" height="502" viewBox="0 0 832 502" fill="none" xmlns="http://www.w3.org/2000/svg">
<mask id="mask0_965_43362" style="mask-type:alpha" maskUnits="userSpaceOnUse" x="0" y="0" width="832" height="416">
<path d="M0.550781 51.931C0.550781 23.2503 23.8011 0 52.4818 0H779.516C808.197 0 831.447 23.2503 831.447 51.931V415.448H0.550781V51.931Z" fill="#F1F1F1"/>
</mask>
<g mask="url(#mask0_965_43362)">
<path d="M139.034 314.471C139.034 161.507 263.036 37.5058 415.999 37.5058C568.963 37.5058 692.965 161.507 692.965 314.471C692.965 467.435 568.963 591.437 415.999 591.437C263.035 591.437 139.034 467.435 139.034 314.471Z" fill="#F5F6F7"/>
<path opacity="0.3" d="M329.447 99.5345C329.447 89.9742 337.197 82.2241 346.758 82.2241H571.792C581.352 82.2241 589.102 89.9742 589.102 99.5345C589.102 109.095 581.352 116.845 571.792 116.845H346.758C337.197 116.845 329.447 109.095 329.447 99.5345Z" fill="#CED4DA"/>
<path opacity="0.3" d="M312.137 281.293C312.137 271.733 319.887 263.983 329.447 263.983H814.137C823.697 263.983 831.447 271.733 831.447 281.293C831.447 290.853 823.697 298.603 814.137 298.603H329.447C319.887 298.603 312.137 290.853 312.137 281.293Z" fill="#CED4DA"/>
<path opacity="0.3" d="M0.550781 160.121C0.550781 150.56 8.30089 142.81 17.8611 142.81H485.24C494.801 142.81 502.551 150.56 502.551 160.121C502.551 169.681 494.801 177.431 485.24 177.431H17.8611C8.3009 177.431 0.550781 169.681 0.550781 160.121Z" fill="#CED4DA"/>
<path opacity="0.3" d="M225.586 341.879C225.586 332.319 233.336 324.569 242.896 324.569H705.948C715.508 324.569 723.258 332.319 723.258 341.879C723.258 351.44 715.508 359.19 705.948 359.19H242.896C233.336 359.19 225.586 351.44 225.586 341.879Z" fill="#CED4DA"/>
<path opacity="0.3" d="M143.361 341.879C143.361 332.319 151.111 324.569 160.672 324.569H190.965C200.525 324.569 208.275 332.319 208.275 341.879C208.275 351.44 200.525 359.19 190.965 359.19H160.672C151.111 359.19 143.361 351.44 143.361 341.879Z" fill="#CED4DA"/>
<path opacity="0.3" d="M446.293 38.9483C446.293 29.388 454.043 21.6379 463.603 21.6379H610.741C620.301 21.6379 628.052 29.388 628.052 38.9483C628.052 48.5085 620.301 56.2586 610.741 56.2586H463.603C454.043 56.2586 446.293 48.5085 446.293 38.9483Z" fill="#CED4DA"/>
<path opacity="0.3" d="M56.8086 220.707C56.8086 211.147 64.5587 203.397 74.1189 203.397H563.136C572.696 203.397 580.447 211.147 580.447 220.707C580.447 230.267 572.696 238.017 563.136 238.017H74.1189C64.5587 238.017 56.8086 230.267 56.8086 220.707Z" fill="#CED4DA"/>
</g>
<path fill-rule="evenodd" clip-rule="evenodd" d="M35.1719 458.724C35.1719 453.944 39.0469 450.069 43.827 450.069L74.1202 450.069C78.9003 450.069 82.7753 453.944 82.7753 458.724C82.7753 463.504 78.9003 467.379 74.1202 467.379L43.827 467.379C39.0469 467.379 35.1719 463.504 35.1719 458.724Z" fill="#F5F6F7"/>
<path fill-rule="evenodd" clip-rule="evenodd" d="M697.293 458.724C697.293 453.944 701.168 450.069 705.948 450.069L788.172 450.069C792.952 450.069 796.827 453.944 796.827 458.724C796.827 463.504 792.952 467.379 788.172 467.379L705.948 467.379C701.168 467.379 697.293 463.504 697.293 458.724Z" fill="#F5F6F7"/>
<path fill-rule="evenodd" clip-rule="evenodd" d="M95.7578 458.724C95.7578 453.944 99.6329 450.069 104.413 450.069H113.068C117.848 450.069 121.723 453.944 121.723 458.724C121.723 463.504 117.848 467.379 113.068 467.379H104.413C99.6329 467.379 95.7578 463.504 95.7578 458.724Z" fill="#F5F6F7"/>
<path fill-rule="evenodd" clip-rule="evenodd" d="M69.793 493.345C69.793 488.565 73.668 484.69 78.4481 484.69H130.379C135.159 484.69 139.034 488.565 139.034 493.345C139.034 498.125 135.159 502 130.379 502H78.4481C73.668 502 69.793 498.125 69.793 493.345Z" fill="#F5F6F7"/>
<path fill-rule="evenodd" clip-rule="evenodd" d="M684.309 493.345C684.309 488.565 688.184 484.69 692.964 484.69H762.205C766.985 484.69 770.86 488.565 770.86 493.345C770.86 498.125 766.985 502 762.205 502H692.964C688.184 502 684.309 498.125 684.309 493.345Z" fill="#F5F6F7"/>
<path fill-rule="evenodd" clip-rule="evenodd" d="M0.55078 406.793C0.550781 402.013 4.42583 398.138 9.20595 398.138L822.792 398.138C827.572 398.138 831.447 402.013 831.447 406.793C831.447 411.573 827.572 415.448 822.792 415.448L9.20595 415.448C4.42583 415.448 0.55078 411.573 0.55078 406.793Z" fill="#CED4DA"/>
<path d="M589.103 484.69C589.103 494.25 511.602 502 416 502C320.398 502 242.896 494.25 242.896 484.69C242.896 475.129 320.398 467.379 416 467.379C511.602 467.379 589.103 475.129 589.103 484.69Z" fill="#CED4DA"/>
<rect width="43.2759" height="43.2759" rx="1.5" transform="matrix(-0.707107 -0.707107 -0.707107 0.707107 783.682 65.2208)" fill="#6673D1"/>
<circle r="10.819" transform="matrix(-1 0 0 1 747.064 157.957)" fill="#EBEBFB"/>
<circle r="12.9828" transform="matrix(-1 0 0 1 783.847 121.172)" fill="#C1C7EC"/>
<rect width="43.2759" height="43.2759" rx="1.5" transform="matrix(-0.707107 -0.707107 -0.707107 0.707107 105.031 272.945)" fill="#C1C7EC"/>
<circle r="10.819" transform="matrix(-1 0 0 1 45.9916 331.06)" fill="#6673D1"/>
<path fill-rule="evenodd" clip-rule="evenodd" d="M536.75 414.82L481.429 363.385L443.048 404.294L374.548 331.287L295.25 410.042V242.63H536.75V414.82ZM536.75 450.38H295.25V434.383L374.566 356.564L443.048 429.553L481.757 388.28L535.663 437.378C535.974 437.69 536.388 437.846 536.75 438.106V450.38ZM536.75 225.318H295.25C285.762 225.318 278 233.108 278 242.63V450.38C278 459.902 285.762 467.693 295.25 467.693H536.75C546.238 467.693 554 459.902 554 450.38V242.63C554 233.108 546.238 225.318 536.75 225.318ZM467.279 277.69C481.579 277.69 493.154 289.306 493.154 303.658C493.154 317.993 481.579 329.627 467.279 329.627C452.979 329.627 441.404 317.993 441.404 303.658C441.404 289.306 452.979 277.69 467.279 277.69ZM467.279 346.94C491.101 346.94 510.404 327.55 510.404 303.658C510.404 279.75 491.101 260.377 467.279 260.377C443.457 260.377 424.154 279.75 424.154 303.658C424.154 327.55 443.457 346.94 467.279 346.94Z" fill="#6673D1"/>
</svg>
